<?xml version="1.0" encoding="UTF-8"?>
<svg width="262.29437" height="90.400002" version="1.1" viewBox="0 0 262.29437 90.400002" xml:space="preserve" xmlns="http://www.w3.org/2000/svg" xmlns:xlink="http://www.w3.org/1999/xlink"><defs><clipPath id="clipPath36"><path d="m1.0729e-5 0h719.9999993v540h-719.9999993z" style="clip-rule:evenodd"/></clipPath><clipPath id="clipPath52"><path d="m1.0729e-5 0h719.9999993v540h-719.9999993z" style="clip-rule:evenodd"/></clipPath><clipPath id="clipPath64"><path d="m1.0729e-5 0h719.9999993v540h-719.9999993z" style="clip-rule:evenodd"/></clipPath><clipPath id="clipPath76"><path d="m1.0729e-5 0h719.9999993v540h-719.9999993z" style="clip-rule:evenodd"/></clipPath><clipPath id="clipPath88"><path d="m1.0729e-5 0h719.9999993v540h-719.9999993z" style="clip-rule:evenodd"/></clipPath><clipPath id="clipPath100"><path d="m1.0729e-5 0h719.9999993v540h-719.9999993z" style="clip-rule:evenodd"/></clipPath><clipPath id="clipPath112"><path d="m1.0729e-5 0h719.9999993v540h-719.9999993z" style="clip-rule:evenodd"/></clipPath><clipPath id="clipPath124"><path d="m1.0729e-5 0h719.9999993v540h-719.9999993z" style="clip-rule:evenodd"/></clipPath><clipPath id="clipPath136"><path d="m1.0729e-5 0h719.9999993v540h-719.9999993z" style="clip-rule:evenodd"/></clipPath><clipPath id="clipPath148"><path d="m1.0729e-5 0h719.9999993v540h-719.9999993z" style="clip-rule:evenodd"/></clipPath><clipPath id="clipPath160"><path d="m1.0729e-5 0h719.9999993v540h-719.9999993z" style="clip-rule:evenodd"/></clipPath><clipPath id="clipPath172"><path d="m1.0729e-5 0h719.9999993v540h-719.9999993z" style="clip-rule:evenodd"/></clipPath><clipPath id="clipPath186"><path d="m1.0729e-5 0h719.9999993v540h-719.9999993z" style="clip-rule:evenodd"/></clipPath><clipPath id="clipPath198"><path d="m1.0729e-5 0h719.9999993v540h-719.9999993z" style="clip-rule:evenodd"/></clipPath><clipPath id="clipPath210"><path d="m1.0729e-5 0h719.9999993v540h-719.9999993z" style="clip-rule:evenodd"/></clipPath><clipPath id="clipPath224"><path d="m1.0729e-5 0h719.9999993v540h-719.9999993z" style="clip-rule:evenodd"/></clipPath><clipPath id="clipPath238"><path d="m1.0729e-5 0h719.9999993v540h-719.9999993z" style="clip-rule:evenodd"/></clipPath><clipPath id="clipPath250"><path d="m1.0729e-5 0h719.9999993v540h-719.9999993z" style="clip-rule:evenodd"/></clipPath><clipPath id="clipPath262"><path d="m1.0729e-5 0h719.9999993v540h-719.9999993z" style="clip-rule:evenodd"/></clipPath></defs><g transform="matrix(1.3333333,0,0,-1.3333333,-149.04,240.71999)"><g transform="translate(-88.359131,-47.335249)"><g clip-path="url(#clipPath36)"><text transform="matrix(1,0,0,-1,36,491.06)" style="fill:#002776;font-family:Arial;font-size:24px;font-weight:bold"><tspan x="0 14.664 28.007999 37.344002 52.007999 65.279999 78.624001 93.288002 106.56 127.896" y="0">Farbschema</tspan></text>



</g></g><path d="m-52.359131 341.46475h29.76v28.56h-29.76z" style="fill-rule:evenodd;fill:#004ca0"/><path d="m-52.359131 301.98475h29.76v28.56h-29.76z" style="fill-rule:evenodd;fill:#6cb21b"/><g clip-path="url(#clipPath52)"><text transform="matrix(1,0,0,-1,586.54,508.03)" style="fill:#004c9f;font-family:'Arial Rounded MT Bold';font-size:18px;stroke-miterlimit:10;stroke-width:.51428998;stroke:#004c9f"><tspan x="0 12.24 17.261999 29.358" y="0">ViSA</tspan></text>



</g><g clip-path="url(#clipPath64)"><text transform="matrix(1,0,0,-1,633.12,508.03)" style="fill:#6cb21b;font-family:'Arial Rounded MT Bold';font-size:18px;stroke-miterlimit:10;stroke-width:.51428998;stroke:#6cb21b"><tspan x="0 11.376 16.398001" y="0">big</tspan></text>



</g><g clip-path="url(#clipPath76)"><text transform="matrix(1,0,0,-1,664.92,508.03)" style="fill:#6cb21b;font-family:'Arial Rounded MT Bold';font-size:18px;stroke-miterlimit:10;stroke-width:.51428998;stroke:#6cb21b"><tspan x="0 11.376 21.690001 28.152" y="0">data</tspan></text>



</g><g transform="translate(-88.359131,-47.335249)"><g clip-path="url(#clipPath88)"><text transform="matrix(1,0,0,-1,74.688,398.23)" style="fill:#002776;font-family:Arial;font-size:15.96000004px"><tspan x="0 11.52312 15.96 25.28064 29.86116 38.734921 43.171799 47.720402 60.073441 64.733757 74.054398 82.928162 91.833839 96.270721 100.81932 111.46464 115.90152 125.286 129.72289 138.59663 147.4704 156.34416 160.90872 168.9366 173.37347 184.0188 188.45567" y="0">R = 0, G =76, B = 160 z.B. </tspan></text>



</g></g><g transform="translate(-88.359131,-47.335249)"><g clip-path="url(#clipPath100)"><text transform="matrix(1,0,0,-1,267.79,398.23)" style="fill:#004c9f;font-family:'Arial Rounded MT Bold';font-size:15.96000004px;stroke-miterlimit:10;stroke-width:.456;stroke:#004c9f"><tspan x="0 10.91664 15.33756 26.12652" y="0">ViSA</tspan></text>



</g></g><g transform="translate(-88.359131,-47.335249)"><g clip-path="url(#clipPath112)"><text transform="matrix(1,0,0,-1,309.94,398.23)" style="fill:#002776;font-family:Arial;font-size:15.96000004px"><tspan x="0 8.8737602 17.74752 26.621281 31.935961 36.245159 45.118919 48.709919 52.300919 61.174679" y="0">oder alle </tspan></text>



</g></g><g transform="translate(-88.359131,-47.335249)"><g clip-path="url(#clipPath124)"><text transform="matrix(1,0,0,-1,375.46,398.23)" style="fill:#002776;font-family:Arial;font-size:15.96000004px"><tspan x="0 10.64532 18.48168 26.50956 30.94644 39.820202 53.11488 61.174679 70.048439 83.343117 92.216881 101.09064 109.99632 118.87008 127.74384 132.18073 141.05447" y="0">Systemkomponenten</tspan></text>



</g></g><g transform="translate(-88.359131,-47.335249)"><g clip-path="url(#clipPath136)"><text transform="matrix(1,0,0,-1,74.688,362.23)" style="fill:#002776;font-family:Arial;font-size:15.96000004px"><tspan x="0 11.52312 15.96 25.28064 29.86116 38.734921 47.608681 56.482441 60.919319 65.483879 77.836922 82.385521 91.706161 100.57992 109.4856 118.35936 122.79624 127.47252 138.11784 142.55472 151.93919 156.37608 165.24985 174.1236 178.68816 186.71603 191.15292 201.79823 206.23512" y="0">R = 108, G =178, B = 27 z.B. </tspan></text>



</g></g><g transform="translate(-88.359131,-47.335249)"><g clip-path="url(#clipPath148)"><text transform="matrix(1,0,0,-1,285.58,362.23)" style="fill:#6cb21b;font-family:'Arial Rounded MT Bold';font-size:15.96000004px;stroke-miterlimit:10;stroke-width:.456;stroke:#6cb21b"><tspan x="0 10.08 14.51016" y="0">big</tspan></text>



</g></g><g transform="translate(-88.359131,-47.335249)"><g clip-path="url(#clipPath160)"><text transform="matrix(1,0,0,-1,314.02,362.23)" style="fill:#6cb21b;font-family:'Arial Rounded MT Bold';font-size:15.96000004px;stroke-miterlimit:10;stroke-width:.456;stroke:#6cb21b"><tspan x="0 10.07076 19.3116 25.057199" y="0">data</tspan></text>



</g></g><g transform="translate(-88.359131,-47.335249)"><g clip-path="url(#clipPath172)"><text transform="matrix(1,0,0,-1,352.18,362.23)" style="fill:#002776;font-family:Arial;font-size:15.96000004px"><tspan x="0 8.8737602 17.74752 26.621281 31.935961 36.468601 45.342361 48.933361 52.524361 61.398121 64.877403 75.52272 84.396477 88.833359 97.739037 106.6128 115.48656 124.36032 133.23409 137.67096 149.19408 158.06784 161.69077 166.12764 178.49664 182.08765 190.9614 199.83516 208.70892 217.58269 226.45644 231.77112 240.64488" y="0">oder alle Aufgaben Uni Oldenburg </tspan></text>



</g></g><path d="m-52.359131 376.14475h29.76v28.56h-29.76z" style="fill-rule:evenodd;fill:#002776"/><g transform="translate(-88.359131,-47.335249)"><g clip-path="url(#clipPath186)"><text transform="matrix(1,0,0,-1,74.688,436.42)" style="fill:#002776;font-family:Arial;font-size:15.96000004px"><tspan x="0 11.52312 15.96 25.28064 29.86116 38.734921 43.171799 47.720402 60.073441 64.733757 74.054398 82.928162 91.833839 96.270721 100.81932 111.46464 115.90152 125.286 129.72289 138.59663 147.4704 156.34416 160.90872 168.9366 173.37347 184.0188 188.45567 192.09456 202.73988 206.36279 209.9538 218.82756 222.19511 232.84044 241.7142 246.15108 255.05676 263.93051 272.80429 281.67804 290.55179 294.98868 303.04849 311.92224 320.79599" y="0">R = 3, G =86, B = 155 z.B. Alle Aufgaben von </tspan></text>



</g></g><g transform="translate(-88.359131,-47.335249)"><g clip-path="url(#clipPath198)"><text transform="matrix(1,0,0,-1,400.18,436.42)" style="fill:#002776;font-family:Arial;font-size:15.96000004px"><tspan x="0 9.7515602 18.62532 23.87616 38.974319 42.565319 51.439079" y="0">ForWind</tspan></text>



</g></g><g transform="translate(-88.359131,-47.335249)"><g clip-path="url(#clipPath210)"><text transform="matrix(1,0,0,-1,74.688,286.15)" style="fill:#002776;font-family:Arial;font-size:15.96000004px"><tspan x="0 11.52312 15.96 25.28064 29.86116 38.734921 47.608681 56.482441 60.919319 65.483879 77.836922 82.385521 91.706161 100.57992 109.4856 118.35936 122.79624 127.47252 138.11784 142.55472 151.93919 156.37608 165.24985 174.1236 182.99736 187.56192 195.5898 200.02669 210.672 215.10889 218.74776 229.39308 233.01601 236.60699 245.48076 248.84831 259.49365 268.3674 272.80429 281.70996 290.58371 299.45749 308.33124 317.20499 321.64188 329.70169 338.57544 347.44919 351.88608 364.30295 373.97473 383.72629 388.16315" y="0">R = 198, G =199, B = 201 z.B. Alle Aufgaben von OFFIS</tspan></text>



</g></g><path d="m-52.359131 225.90475h29.76v28.56h-29.76z" style="fill-rule:evenodd;fill:#c6c7c9"/><g transform="translate(-88.359131,-47.335249)"><g clip-path="url(#clipPath224)"><text transform="matrix(1,0,0,-1,74.688,318.7)" style="fill:#002776;font-family:Arial;font-size:15.98400021px"><tspan x="0 11.540448 15.984 25.318657 29.858112 38.745216 47.63232 56.519424 60.962975 65.48645 77.842079 82.381538 91.716194 100.60329 109.4904 118.3775 122.82105 127.48838 138.14972 142.59326 151.92792 156.37148 165.25858 174.14568 183.03279 187.58823 195.6122 200.05574 210.71707 215.16063 218.77301 229.43434 233.03073 236.61115 245.49826 248.85489 259.51624 268.40332 272.84689 281.73398 290.62109 299.50818 308.39529 317.28241 321.72595 329.71796 338.60504 347.49216 351.9357 356.37927 371.46817 382.12949" y="0">R = 198, G =199, B = 201 z.B. Alle Aufgaben von IWES</tspan></text>



</g></g><path d="m-52.359131 261.90475h29.76v28.56h-29.76z" style="fill-rule:evenodd;fill:#179c7d"/><g transform="translate(-5.9999977)"><g clip-path="url(#clipPath238)"><text transform="matrix(1,0,0,-1,197.5,140.76)" style="fill:#004c9f;font-family:'Arial Rounded MT Bold';font-size:18px;stroke-miterlimit:10;stroke-width:.51428998;stroke:#004c9f"><tspan x="0 17.028 22.049999 34.056" y="0">WiSA</tspan></text>



</g></g><g transform="translate(-8.8949571)"><g clip-path="url(#clipPath250)"><text transform="matrix(1,0,0,-1,248.74,140.76)" style="fill:#6cb21b;font-family:'Arial Rounded MT Bold';font-size:18px;stroke-miterlimit:10;stroke-width:.51428998;stroke:#6cb21b"><tspan x="0 11.376 16.398001" y="0">big</tspan></text>



</g></g><g transform="translate(-11.999992)"><g clip-path="url(#clipPath262)"><text transform="matrix(1,0,0,-1,280.66,140.76)" style="fill:#6cb21b;font-family:'Arial Rounded MT Bold';font-size:18px;stroke-miterlimit:10;stroke-width:.51428998;stroke:#6cb21b"><tspan x="0 11.376 21.690001 28.152" y="0">data</tspan></text>



</g></g><path d="m135.48 129.36h11.04v10.56h-11.04z" style="fill-rule:evenodd;fill:#179c7d"/><path d="m145.2 127.32h11.04v10.56h-11.04z" style="fill-rule:evenodd;fill:#002776"/><path d="m124.08 141.24h11.04v10.56h-11.04z" style="fill-rule:evenodd;fill:#c6c7c9"/><path d="m128.28 114.24h11.04v10.56h-11.04z" style="fill-rule:evenodd;fill:#6cb21b"/><path d="m146.88 139.92h11.04v10.56h-11.04z" style="fill-rule:evenodd;fill:#004ca0"/><path d="m144.48 144.84h11.04v10.56h-11.04z" style="fill-rule:evenodd;fill:#179c7d"/><path d="m149.52 153.72h11.04v10.56h-11.04z" style="fill-rule:evenodd;fill:#002776"/><path d="m166.68 127.8h10.92v10.56h-10.92z" style="fill-rule:evenodd;fill:#c6c7c9"/><path d="m166.68 150.12h10.92v10.56h-10.92z" style="fill-rule:evenodd;fill:#6cb21b"/><path d="m159.72 132.96h11.04v10.68h-11.04z" style="fill-rule:evenodd;fill:#004ca0"/><path d="m113.28 163.08h11.04v10.68h-11.04z" style="fill-rule:evenodd;fill:#179c7d"/><path d="m123.6 156.72h11.04v10.68h-11.04z" style="fill-rule:evenodd;fill:#002776"/><path d="m134.64 168.36h11.04v10.68h-11.04z" style="fill-rule:evenodd;fill:#c6c7c9"/><path d="m114.96 145.08h11.04v10.68h-11.04z" style="fill-rule:evenodd;fill:#6cb21b"/><path d="m130.44 150.36h11.04v10.56h-11.04z" style="fill-rule:evenodd;fill:#004ca0"/></g></svg>
